<?xml version="1.0" encoding="UTF-8"?>
<svg width="64" height="64" viewBox="0 0 64 64" xmlns="http://www.w3.org/2000/svg">
  <!-- Square icon version for favicons, app icons, etc. -->
  <rect width="64" height="64" fill="#FFFFFF" rx="8"/>
  
  <!-- Vector pattern centered -->
  <g transform="translate(32, 32)">
    <!-- Central query node (larger, amber) -->
    <circle cx="0" cy="0" r="8" fill="#F59E0B" stroke="#1E40AF" stroke-width="2"/>
    
    <!-- Ring of similar vectors -->
    <circle cx="-16" cy="-16" r="5" fill="#1E40AF"/>
    <circle cx="0" cy="-20" r="5" fill="#1E40AF"/>
    <circle cx="16" cy="-16" r="5" fill="#1E40AF"/>
    <circle cx="20" cy="0" r="5" fill="#1E40AF"/>
    <circle cx="16" cy="16" r="5" fill="#1E40AF"/>
    <circle cx="0" cy="20" r="5" fill="#1E40AF"/>
    <circle cx="-16" cy="16" r="5" fill="#1E40AF"/>
    <circle cx="-20" cy="0" r="5" fill="#1E40AF"/>
    
    <!-- Connection lines (proximity visualization) -->
    <line x1="0" y1="0" x2="-16" y2="-16" stroke="#10B981" stroke-width="2" opacity="0.7"/>
    <line x1="0" y1="0" x2="0" y2="-20" stroke="#10B981" stroke-width="2" opacity="0.7"/>
    <line x1="0" y1="0" x2="16" y2="-16" stroke="#10B981" stroke-width="2" opacity="0.7"/>
    <line x1="0" y1="0" x2="20" y2="0" stroke="#10B981" stroke-width="2" opacity="0.7"/>
    <line x1="0" y1="0" x2="16" y2="16" stroke="#10B981" stroke-width="2" opacity="0.7"/>
    <line x1="0" y1="0" x2="0" y2="20" stroke="#10B981" stroke-width="2" opacity="0.7"/>
    <line x1="0" y1="0" x2="-16" y2="16" stroke="#10B981" stroke-width="2" opacity="0.7"/>
    <line x1="0" y1="0" x2="-20" y2="0" stroke="#10B981" stroke-width="2" opacity="0.7"/>
  </g>
</svg>